<svg xmlns="http://www.w3.org/2000/svg" width="177" height="28" fill="none"><path fill="#fff" d="M107.656 9.596 113.3 4.31h1.376v3.056h4.708v3.744h-4.708v4.707c0 1.322.799 1.872 1.982 1.872.551 0 1.046-.165 1.597-.385l.936 3.469a8.084 8.084 0 0 1-3.606.853c-3.249 0-5.203-1.872-5.203-4.763V11.11h-2.726V9.596ZM93.439 21.437V.875h4.295v7.43c1.073-.798 2.284-1.155 3.551-1.155 3.028 0 5.588 2.037 5.588 5.836v8.451h-4.294V13.73c0-1.652-.854-2.615-2.313-2.615-1.431 0-2.532.88-2.532 2.615v7.708h-4.295ZM76.013 14.11c0-4.102 2.863-7.102 6.69-7.102a5.61 5.61 0 0 1 3.909 1.569l.358-1.212h3.689V21.02c0 3.689-2.45 6.662-7.13 6.662-4.13 0-6.442-2.065-7.075-4.735l4.377-.936c.358 1.294 1.404 1.79 2.643 1.79 1.927 0 2.89-1.02 2.89-2.533V19.78a5.554 5.554 0 0 1-3.661 1.35c-3.827 0-6.69-2.974-6.69-7.02Zm4.487 0c0 1.927 1.157 3.194 2.919 3.194 1.761 0 2.945-1.267 2.945-3.194 0-1.9-1.184-3.138-2.945-3.138-1.762 0-2.918 1.239-2.918 3.138ZM69.81 21.437V8.035c3.08 0 4.332-1.219 4.332-1.219v14.621H69.81ZM62.903 21.437V.877h4.295v20.56h-4.295ZM49.898 9.596l5.644-5.286h1.376v3.056h4.708v3.744h-4.708v4.707c0 1.322.799 1.872 1.983 1.872.55 0 1.046-.165 1.596-.385l.936 3.469a8.085 8.085 0 0 1-3.606.853c-3.249 0-5.203-1.872-5.203-4.763V11.11h-2.726V9.596ZM42.285 7.008c4.378 0 7.571 3.11 7.571 7.322s-3.193 7.296-7.57 7.296c-4.35 0-7.544-3.084-7.544-7.296s3.194-7.322 7.544-7.322Zm0 3.964c-1.9 0-3.083 1.321-3.083 3.358s1.184 3.359 3.084 3.359c1.926 0 3.11-1.294 3.11-3.359 0-2.037-1.184-3.358-3.11-3.358ZM19.14 7.365h3.69l.357 1.294c.991-1.046 2.34-1.651 3.992-1.651 3.909 0 6.91 3.11 6.91 7.322s-3.001 7.296-6.91 7.296c-1.514 0-2.78-.523-3.744-1.404v7.13H19.14V7.365Zm7.378 3.607c-1.9 0-3.083 1.321-3.083 3.358s1.184 3.359 3.083 3.359c1.9 0 3.083-1.322 3.083-3.359s-1.183-3.358-3.083-3.358ZM17.378 5.769 12.781 7.09c-.44-1.707-1.597-2.78-3.606-2.78-1.983 0-3.221.798-3.221 2.202 0 1.68 2.01 1.955 4.377 2.423 3.22.633 7.102 1.706 7.102 6.083 0 4.075-3.33 6.608-8.23 6.608-4.653 0-7.71-1.983-8.728-5.81l4.763-1.376c.44 2.23 1.954 3.194 4.13 3.194 1.926 0 3.303-.771 3.303-2.285 0-1.79-1.872-2.01-4.102-2.45-3.331-.633-7.405-1.57-7.405-6.14 0-3.908 3.633-6.441 8.093-6.441 4.185 0 6.993 1.844 8.121 5.45ZM69.81 5.75V.878h5.415c-.542 1.625-3.25 2.708-3.25 2.708h2.167S73.709 5.75 69.81 5.75ZM171.826 11.122V3.559h1.28v2.964a2.027 2.027 0 0 1 1.432-.564c1.069 0 1.987.726 1.987 2.117v3.046h-1.271V8.278c0-.756-.433-1.14-1.028-1.14-.535 0-1.12.293-1.12 1.14v2.844h-1.28ZM168.898 11.222c-1.129 0-2.017-.433-2.299-1.512l1.301-.262c.101.524.474.746.998.746.514 0 .827-.202.827-.565 0-.383-.544-.433-1.149-.544-.817-.131-1.775-.353-1.775-1.513 0-.938.887-1.613 2.107-1.613 1.14 0 1.825.504 2.118 1.401l-1.261.263c-.1-.434-.403-.636-.857-.636-.504 0-.806.222-.806.525 0 .373.463.453 1.038.544.847.141 1.896.313 1.896 1.493 0 .958-.706 1.673-2.138 1.673ZM162.537 6.07v3.025c0 .635.363.958.998.958.494 0 1.028-.272 1.028-1.08V6.07h1.271v5.052h-1.139l-.061-.494c-.333.383-.766.595-1.452.595-1.039 0-1.916-.676-1.916-2.007V6.07h1.271ZM157.591 11.122V6.07h1.189l.081.595c.293-.414.746-.686 1.382-.686.181 0 .302.02.504.07l-.151 1.251a1.983 1.983 0 0 0-.525-.07c-.675 0-1.2.463-1.2 1.28v2.612h-1.28ZM149.186 11.122V6.07h1.149l.071.494c.323-.363.726-.605 1.281-.605.594 0 1.119.252 1.431.746.363-.444.837-.746 1.513-.746.988 0 1.795.675 1.795 1.966v3.197h-1.271V8.026c0-.585-.322-.887-.806-.887-.454 0-.908.221-.908.887v3.096h-1.27V8.026c0-.585-.323-.887-.807-.887-.444 0-.908.221-.908.887v3.096h-1.27ZM145.817 11.222c-1.674 0-2.672-1.099-2.672-2.601 0-1.533 1.079-2.662 2.612-2.662 1.482 0 2.511.998 2.511 2.45 0 .182-.021.383-.061.575h-3.761c.131.786.645 1.14 1.371 1.14.666 0 1.049-.293 1.22-.727l1.18.242c-.302.999-1.18 1.583-2.4 1.583Zm-.06-4.204c-.585 0-1.089.312-1.271.988h2.44c-.111-.646-.524-.988-1.169-.988ZM142.55 5.434l-1.392.363c-.151-.685-.645-1.129-1.422-1.129-.857 0-1.351.353-1.351.938 0 .696.787.847 1.674 1.049 1.17.252 2.511.625 2.511 2.238 0 1.432-1.15 2.33-2.834 2.33-1.694 0-2.712-.777-3.085-2.158l1.401-.384c.212.928.827 1.311 1.694 1.311.787 0 1.412-.312 1.412-1.048 0-.716-.766-.868-1.644-1.06-1.179-.251-2.561-.554-2.561-2.218 0-1.29 1.24-2.208 2.793-2.208 1.483 0 2.471.706 2.804 1.976ZM129.031 6.07h1.411l1.412 3.398 1.23-3.398h1.342l-2.784 7.27h-1.31l.857-2.238-2.158-5.032ZM123.675 11.122V3.559h1.281v3.045a2.097 2.097 0 0 1 1.532-.645c1.412 0 2.481 1.12 2.481 2.632 0 1.522-1.069 2.632-2.481 2.632a2.094 2.094 0 0 1-1.583-.696l-.08.595h-1.15Zm2.622-3.994c-.817 0-1.341.585-1.341 1.463 0 .887.524 1.472 1.341 1.472s1.351-.585 1.351-1.472c0-.878-.534-1.463-1.351-1.463Z"/></svg>
